 <svg  version="1.0" xmlns="http://www.w3.org/2000/svg"  width="173.000000pt" height="40.000000pt" viewBox="0 0 173.000000 40.000000"  preserveAspectRatio="xMidYMid meet">  <g transform="translate(0.000000,40.000000) scale(0.050000,-0.050000)" fill="#f6a304" stroke="none"> <path d="M187 647 c-154 -32 -142 -182 19 -235 120 -39 140 -77 47 -88 -34 -4 -57 4 -65 25 -7 18 -36 31 -69 31 -51 0 -56 -5 -41 -45 51 -142 362 -112 362 34 0 59 -44 96 -146 122 -45 11 -85 31 -89 45 -12 35 54 54 97 27 45 -28 118 -30 118 -4 0 26 -58 81 -86 81 -13 0 -42 4 -64 8 -22 4 -59 3 -83 -1z"/> <path d="M1780 589 c0 -63 -4 -68 -39 -50 -94 51 -181 -18 -181 -143 0 -123 122 -204 199 -131 21 20 28 20 35 0 5 -14 27 -25 48 -25 35 0 38 16 38 210 l0 210 -50 0 c-44 0 -50 -9 -50 -71z m-10 -189 c0 -61 -6 -70 -50 -70 -52 0 -76 58 -52 123 25 63 102 23 102 -53z"/> <path d="M1951 595 c-6 -25 -8 -112 -6 -195 l5 -150 175 -6 175 -6 0 51 c0 49 -5 51 -120 51 -93 0 -120 7 -120 30 0 27 87 43 175 31 14 -1 25 15 25 37 0 33 -16 41 -95 46 -158 10 -147 76 14 76 108 0 121 4 121 40 0 66 -335 61 -349 -5z"/> <path d="M2743 589 c-13 -28 -32 -46 -43 -39 -11 7 -20 -5 -20 -27 0 -21 14 -44 30 -50 21 -8 30 -41 30 -110 0 -105 17 -123 112 -123 53 0 66 49 18 67 -20 8 -30 39 -30 92 0 59 8 81 30 81 17 0 30 14 30 30 0 17 -13 30 -30 30 -19 0 -30 19 -30 50 0 68 -66 67 -97 -1z"/> <path d="M621 541 c-16 -10 -54 -13 -85 -7 l-56 11 0 -208 c0 -208 0 -208 50 -212 44 -4 50 3 50 64 0 67 2 68 68 57 93 -15 152 45 152 154 0 122 -93 195 -179 141z m69 -141 c0 -61 -6 -70 -50 -70 -52 0 -76 58 -52 123 25 63 102 23 102 -53z"/> <path d="M887 513 c-114 -99 -46 -271 107 -273 80 0 166 38 166 73 0 33 -67 35 -118 4 -44 -28 -102 -10 -102 32 0 24 25 31 117 31 l118 0 -13 65 c-24 115 -176 153 -275 68z m169 -58 c5 -27 -7 -35 -55 -35 -39 0 -61 10 -61 28 0 58 105 64 116 7z"/> <path d="M1253 519 c-53 -42 -74 -157 -38 -211 52 -78 222 -91 290 -23 l45 45 -57 7 c-32 3 -68 -4 -79 -15 -21 -21 -94 -31 -94 -14 0 5 -5 23 -12 40 -10 27 7 32 110 32 92 0 122 7 122 28 0 128 -178 197 -287 111z m163 -64 c5 -27 -7 -35 -55 -35 -65 0 -76 17 -36 57 33 33 83 21 91 -22z"/> <path d="M2385 539 c-60 -24 -59 -79 1 -79 25 0 56 10 69 23 29 29 85 8 85 -32 0 -23 -21 -31 -79 -31 -83 0 -141 -40 -141 -97 0 -76 96 -108 183 -61 30 16 47 16 63 0 32 -32 114 -27 114 7 0 16 -9 34 -20 41 -11 7 -20 52 -20 100 0 131 -111 187 -255 129z m151 -194 c-8 -40 -71 -58 -100 -29 -30 30 0 64 57 64 37 0 48 -9 43 -35z"/> <path d="M2988 540 c-104 -41 -70 -153 53 -172 44 -8 85 -21 91 -31 18 -29 -55 -45 -94 -20 -45 28 -118 30 -118 4 0 -66 199 -108 263 -56 83 66 51 145 -69 170 -85 17 -107 52 -39 61 25 4 45 -3 45 -15 0 -11 23 -21 50 -21 62 0 64 28 6 69 -49 34 -122 38 -188 11z"/> <path d="M3260 300 c0 -53 7 -60 60 -60 53 0 60 7 60 60 0 53 -7 60 -60 60 -53 0 -60 -7 -60 -60z"/> </g> </svg> 