 <svg  version="1.0" xmlns="http://www.w3.org/2000/svg"  width="300.000000pt" height="300.000000pt" viewBox="0 0 300.000000 300.000000"  preserveAspectRatio="xMidYMid meet">  <g transform="translate(0.000000,300.000000) scale(0.100000,-0.100000)" fill="#f6a300" stroke="none"> <path d="M487 2875 c-143 -39 -263 -138 -328 -270 -68 -138 -66 -274 8 -420 73 -143 278 -265 448 -265 23 0 53 -16 111 -60 120 -90 144 -82 144 50 l1 85 40 25 c59 36 128 115 161 187 84 177 50 375 -90 525 -70 74 -148 120 -243 143 -77 18 -187 18 -252 0z m204 -75 c133 -25 247 -112 303 -230 29 -60 31 -73 31 -170 0 -96 -3 -110 -28 -158 -35 -67 -98 -136 -154 -169 -55 -32 -67 -54 -58 -109 3 -24 4 -44 0 -44 -3 0 -31 20 -63 45 -55 43 -60 45 -124 45 -238 0 -441 230 -400 453 30 161 149 287 313 331 66 18 109 19 180 6z m125 -947 c-6 -7 -95 58 -96 70 0 4 11 1 24 -8 21 -14 25 -14 47 4 l24 19 3 -40 c2 -22 1 -42 -2 -45z"/> <path d="M512 2661 c-29 -10 -70 -32 -90 -48 -47 -38 -91 -119 -99 -182 -4 -37 -10 -51 -24 -54 -26 -7 -25 -53 1 -69 13 -9 20 -24 20 -46 0 -22 8 -41 25 -57 l24 -25 246 0 246 0 24 25 c17 16 25 35 25 59 0 25 6 38 20 46 26 14 27 60 2 67 -13 3 -21 21 -29 64 -35 183 -211 282 -391 220z m200 -87 c46 -23 67 -43 89 -86 30 -58 26 -63 -40 -64 -39 -1 -69 -7 -86 -18 -35 -23 -75 -23 -122 0 -24 11 -59 18 -95 18 -55 -1 -56 0 -47 23 29 77 73 122 139 142 45 13 120 7 162 -15z m-291 -32 c-56 -69 -49 -152 13 -152 17 0 14 -5 -15 -25 -38 -25 -49 -43 -49 -78 0 -24 27 -57 47 -57 7 0 13 -5 13 -10 0 -10 -41 -7 -60 5 -5 3 -10 17 -10 30 0 14 -9 39 -19 56 -19 31 -19 32 0 68 10 20 19 41 19 48 0 29 33 107 57 134 38 42 41 27 4 -19z m395 13 c29 -37 54 -96 54 -131 0 -12 9 -33 20 -47 11 -14 20 -28 20 -32 0 -4 -9 -18 -20 -32 -11 -14 -20 -38 -20 -54 0 -31 -2 -33 -45 -43 l-30 -7 33 26 c43 35 43 75 2 117 l-30 30 25 20 c15 11 25 30 25 44 0 29 -25 94 -37 94 -12 1 -46 50 -35 50 6 0 22 -16 38 -35z m-271 -236 c52 -24 89 -23 144 1 78 36 141 22 141 -30 l0 -30 -216 0 -215 0 3 32 c6 58 53 67 143 27z"/> <path d="M1829 2817 c-137 -39 -232 -147 -259 -295 -6 -34 -8 -79 -4 -100 10 -54 43 -138 59 -152 22 -18 19 -24 -27 -57 -57 -41 -197 -184 -249 -253 -100 -135 -139 -247 -139 -406 0 -122 13 -174 56 -231 l25 -33 -85 0 -86 0 0 218 c0 156 -3 221 -12 230 -17 17 -549 17 -566 0 -9 -9 -12 -74 -12 -230 l0 -218 -49 0 c-32 0 -55 -6 -65 -16 -19 -18 -19 -20 -6 -45 10 -18 23 -19 198 -19 l188 0 -4 -36 c-3 -27 3 -47 27 -85 l31 -50 -32 -88 -33 -87 -51 4 c-46 4 -54 1 -86 -27 -65 -57 -69 -153 -7 -205 17 -14 35 -26 40 -26 5 0 9 -15 9 -32 0 -58 20 -107 59 -149 24 -25 42 -54 46 -77 41 -224 312 -318 482 -168 44 39 93 122 93 159 0 16 28 17 444 17 l443 0 22 -58 c69 -192 314 -254 467 -119 44 39 94 122 94 158 0 9 12 21 26 28 25 11 26 15 22 69 -7 75 -42 146 -98 202 -44 45 -123 90 -157 90 -10 0 -23 4 -29 8 -8 4 -25 154 -48 407 -20 220 -37 409 -39 420 -2 18 4 20 60 22 118 4 175 53 181 158 3 50 0 65 -20 94 -45 66 -68 76 -189 79 -94 3 -115 1 -150 -16 -41 -20 -41 -20 -73 -1 -28 17 -51 19 -225 19 l-193 0 6 23 c14 51 18 107 8 135 -9 26 -8 31 10 35 11 3 22 14 24 24 3 12 24 24 63 35 96 29 173 124 188 233 l6 45 52 0 c58 0 79 15 73 52 -2 18 -10 24 -35 26 -24 2 -33 8 -33 21 0 35 -61 140 -106 181 -89 82 -226 118 -335 87z m183 -89 c66 -20 152 -107 173 -175 l6 -23 -143 0 c-99 0 -148 -4 -156 -12 -8 -8 -12 -59 -12 -165 0 -116 -3 -153 -12 -153 -27 1 -104 42 -136 73 -48 46 -74 102 -80 173 -16 199 165 341 360 282z m248 -232 c0 -3 -9 -6 -19 -6 -11 0 -33 -11 -49 -25 l-30 -25 -16 25 c-21 32 -20 35 9 35 14 0 34 11 46 25 l22 24 18 -24 c11 -13 19 -26 19 -29z m-300 -8 c0 -14 -30 -48 -42 -48 -15 0 -8 39 10 49 23 14 32 13 32 -1z m166 -75 c-10 -57 -56 -125 -101 -150 -64 -36 -65 -35 -65 82 l0 105 86 0 86 0 -6 -37z m-417 -164 c36 -35 38 -43 12 -34 -10 3 -30 1 -45 -5 -24 -9 -26 -8 -16 9 5 11 10 29 10 40 0 27 3 27 39 -10z m214 -93 c-26 -28 -48 -52 -49 -54 -1 -2 -16 16 -35 39 l-33 41 32 -6 c38 -9 72 20 72 61 l0 27 30 -29 30 -28 -47 -51z m-185 9 c20 -14 42 -25 49 -25 8 0 22 -15 33 -32 22 -37 26 -107 9 -156 -10 -30 -13 -31 -76 -34 -73 -3 -98 -22 -77 -55 10 -16 38 -18 304 -21 196 -1 298 -6 307 -13 19 -17 16 -57 -6 -69 -13 -6 -141 -10 -350 -10 -304 0 -331 -1 -339 -17 -6 -10 -6 -28 -1 -40 7 -20 15 -23 64 -23 30 0 55 -3 55 -8 0 -4 -13 -23 -29 -43 l-29 -35 -159 17 c-87 10 -168 18 -181 18 -21 1 -22 4 -16 39 17 93 93 228 186 332 43 47 207 199 216 200 2 0 20 -11 40 -25z m152 -260 l23 -25 -48 0 -48 0 23 25 c13 14 24 25 25 25 1 0 12 -11 25 -25z m492 -54 l21 11 -20 -28 c-41 -59 -41 -108 1 -156 26 -31 64 -48 108 -48 l31 0 -21 -23 c-12 -13 -22 -30 -22 -38 -1 -9 -5 -7 -12 6 -6 11 -21 28 -32 37 -12 10 -40 34 -63 53 -56 49 -88 53 -124 19 -28 -27 -29 -27 -49 -9 -29 26 -25 35 15 35 45 0 87 21 109 55 16 24 16 29 2 57 -20 40 -21 39 10 28 17 -7 32 -6 46 1z m269 -40 c37 -38 39 -82 4 -116 -22 -23 -32 -25 -118 -25 -80 0 -98 3 -121 21 -36 28 -37 89 -1 124 22 23 32 25 115 25 88 0 93 -1 121 -29z m-2041 -110 c0 -12 -29 -35 -36 -28 -11 10 5 37 21 37 8 0 15 -4 15 -9z m454 3 c16 -6 23 -34 8 -34 -10 0 -32 22 -32 32 0 10 3 10 24 2z m711 -24 l-28 -29 -18 24 c-11 13 -19 26 -19 29 0 3 21 6 47 6 l47 0 -29 -30z m562 -28 c12 -16 37 -36 56 -46 43 -20 37 19 82 -501 20 -226 39 -416 44 -424 4 -8 36 -20 72 -28 102 -21 189 -97 205 -182 l7 -34 -33 6 c-18 4 -457 7 -975 7 l-943 0 -31 26 c-17 14 -36 43 -42 64 -11 37 -8 50 61 237 41 109 77 202 81 206 4 5 22 0 40 -10 30 -16 64 -18 292 -21 224 -3 284 0 356 19 11 3 17 -9 22 -44 14 -94 91 -186 198 -236 47 -22 70 -26 146 -26 74 0 98 4 137 23 68 34 134 96 162 155 46 94 47 123 15 462 -16 171 -31 322 -33 337 -5 27 0 30 50 37 5 0 20 -12 31 -27z m-1297 -172 l0 -190 -215 0 -215 0 0 190 0 190 215 0 215 0 0 -190z m1134 143 c15 -116 56 -578 56 -625 0 -59 -33 -140 -69 -172 -19 -17 -24 -18 -48 -5 -14 8 -34 32 -43 54 -16 37 -16 55 -3 269 17 257 14 281 -40 343 -43 48 -95 70 -194 78 l-82 7 27 49 27 49 182 0 181 0 6 -47z m-897 -70 l-27 -28 0 55 0 55 27 -28 28 -27 -28 -27z m466 0 l20 -23 -45 0 c-76 0 -84 8 -41 40 23 16 40 22 42 16 2 -6 13 -21 24 -33z m-100 -52 c294 -31 306 -35 339 -102 16 -32 16 -50 2 -261 -17 -258 -14 -286 42 -348 l35 -39 -46 -7 c-132 -19 -262 62 -299 187 -22 72 -21 74 24 131 48 61 59 107 36 154 -28 61 -64 74 -201 74 -95 0 -128 4 -160 19 -75 35 -125 111 -125 191 l0 41 43 -6 c23 -3 163 -19 310 -34z m-281 -200 c43 -29 96 -48 153 -54 17 -2 -30 -5 -103 -6 l-133 -1 21 30 c12 17 19 37 16 45 -7 21 -3 19 46 -14z m-242 -55 c0 -3 -51 -6 -113 -6 -121 0 -132 -4 -165 -65 -11 -19 -11 -19 -12 4 0 14 -10 35 -22 48 l-21 23 49 1 c27 1 79 0 116 -1 62 -2 70 0 95 27 l28 28 23 -26 c12 -15 22 -30 22 -33z m-524 37 c21 -27 17 -33 -21 -33 -39 0 -42 5 -18 32 20 22 23 22 39 1z m1124 -52 c39 -30 34 -84 -13 -145 -21 -28 -40 -66 -43 -88 -6 -32 -8 -36 -18 -22 -11 14 -51 16 -332 18 -175 2 -335 6 -355 10 -24 5 -45 4 -59 -4 -21 -11 -22 -11 -17 16 3 15 1 38 -4 51 -11 29 2 30 27 2 10 -12 37 -31 59 -43 38 -20 56 -21 312 -23 170 -2 283 1 300 8 58 21 121 73 143 116 21 41 21 45 5 69 -9 14 -31 32 -48 39 -30 13 -30 14 -7 14 14 0 36 -8 50 -18z m-26 -37 c21 -21 21 -25 -15 -73 -55 -77 -74 -81 -392 -81 -298 0 -308 2 -365 54 -21 18 -52 66 -52 80 0 2 7 12 16 20 13 14 64 16 404 16 340 0 391 -2 404 -16z m-879 -390 l-18 -47 -16 27 c-8 14 -20 26 -26 26 -5 0 8 11 30 24 22 14 42 23 44 20 2 -2 -4 -25 -14 -50z m1332 -31 c14 3 20 0 16 -9 -8 -22 -105 -62 -163 -67 l-55 -5 45 11 c24 6 52 18 62 26 19 17 24 56 8 66 -5 3 -10 10 -10 15 0 5 17 -2 37 -16 22 -15 47 -24 60 -21z m-1401 -9 c-4 -15 -13 -40 -19 -57 -12 -28 -14 -29 -30 -13 -34 34 -12 96 35 96 17 0 19 -4 14 -26z m1836 -73 c-18 -4 -44 27 -35 41 3 6 15 -1 28 -13 18 -20 19 -25 7 -28z m-682 25 c32 -10 38 -15 20 -15 -14 0 -38 6 -55 14 -40 18 -21 18 35 1z m-1145 -71 c-17 -43 -19 -45 -36 -29 -22 20 -25 44 -6 44 8 0 22 9 32 20 26 29 30 18 10 -35z m88 -218 l47 -23 -25 -24 c-23 -22 -25 -22 -31 -4 -4 10 -16 31 -26 47 -11 15 -18 27 -16 27 2 0 24 -11 51 -23z m2005 2 c1 -9 -10 -31 -26 -51 l-28 -36 -21 33 -22 33 30 6 c16 3 32 13 35 21 8 19 28 15 32 -6z m-1478 -26 c-1 -13 -38 -53 -49 -53 -6 0 -11 7 -11 15 0 8 -4 15 -9 15 -5 0 -11 7 -15 15 -4 12 4 15 39 15 25 0 45 -3 45 -7z m969 -24 l-29 -31 -20 23 c-28 35 -25 39 29 39 l49 0 -29 -31z m-1049 -21 c0 -37 -65 -119 -114 -145 -40 -21 -141 -22 -181 -1 -34 18 -87 72 -104 105 -24 48 -24 48 194 48 113 0 205 -3 205 -7z m1465 -17 c-29 -114 -186 -181 -295 -126 -29 15 -83 70 -99 102 -24 48 -24 48 194 48 l206 0 -6 -24z"/> <path d="M1153 855 c-55 -24 -73 -66 -73 -172 0 -81 2 -94 19 -103 26 -13 356 -13 382 0 17 9 19 22 19 103 0 107 -18 149 -75 173 -46 19 -228 19 -272 -1z m273 -43 c12 -9 25 -28 29 -42 7 -22 4 -21 -21 10 -16 19 -33 38 -39 42 -6 5 -7 8 0 8 6 0 20 -8 31 -18z m-16 -52 c6 -12 10 -39 8 -61 l-3 -40 -128 -2 -127 -2 0 51 c0 27 5 55 12 62 8 8 49 12 120 12 98 0 108 -2 118 -20z m-262 -123 c8 -9 26 -18 40 -20 19 -3 15 -4 -13 -5 -61 -2 -66 4 -57 83 l7 70 5 -56 c3 -31 11 -63 18 -72z m322 19 c0 -34 -13 -46 -49 -45 -20 0 -29 3 -21 6 8 4 23 17 33 30 21 26 37 30 37 9z"/> <path d="M1767 1044 c-3 -3 -2 -17 3 -30 5 -13 7 -24 4 -24 -2 0 0 -8 5 -18 6 -11 13 -31 16 -45 3 -15 7 -39 10 -54 8 -36 23 -63 37 -63 7 0 6 5 -2 15 -7 9 -10 18 -7 21 5 5 -10 77 -34 167 -9 35 -18 44 -32 31z"/> <path d="M122 1738 c-7 -7 -12 -19 -12 -28 0 -35 21 -40 172 -40 137 0 148 1 158 20 8 14 8 26 0 40 -10 19 -21 20 -158 20 -102 0 -152 -4 -160 -12z"/> <path d="M199 1572 c-22 -15 -25 -42 -7 -60 19 -19 222 -16 242 4 19 19 20 25 3 49 -12 15 -29 18 -117 19 -70 1 -109 -3 -121 -12z"/> <path d="M267 1402 c-40 -44 -7 -72 83 -72 49 0 73 4 84 16 20 19 20 24 0 52 -13 19 -24 22 -83 22 -53 0 -72 -4 -84 -18z"/> </g> </svg> 